<svg width="152" height="152" viewBox="0 0 152 152" fill="none" xmlns="http://www.w3.org/2000/svg">
<g id="IST_icon">
<g id="IST_icon_2">
<circle id="Oval" cx="76" cy="76" r="76" fill="#FDD4DA"/>
<circle id="Oval_2" cx="76" cy="76" r="68" fill="#F6787F"/>
<g id="Group">
<path id="Path" d="M76 16C42.868 16 16 42.868 16 76C16 109.132 42.856 136 76 136C109.132 136 136 109.132 136 76C136 42.868 109.132 16 76 16Z" fill="#DF0A31"/>
<path id="Path_2" d="M76.0001 136.002C107.536 136.002 133.384 111.678 135.82 80.7775C133.66 66.8935 126.22 52.0495 126.22 52.0495C125.332 49.7335 112.78 50.7415 111.124 50.8495C72.6521 53.2255 34.5041 60.5455 26.5601 62.7535C25.7681 62.9695 25.5041 63.5215 25.7321 63.9535C36.0401 83.0335 40.8761 107.658 42.5321 125.814C52.0841 132.246 63.6041 136.002 76.0001 136.002Z" fill="#62000F"/>
<g id="Group_2">
<path id="Path_3" d="M111.112 50.8365C72.664 53.5365 34.492 60.5325 26.548 62.7405C25.576 63.0045 25.372 63.7845 25.96 64.2045C45.436 78.3405 62.428 94.6605 72.376 106.301C76.192 110.777 78.784 108.377 80.716 105.857C84.256 101.237 88.552 96.0045 91.792 92.1165C92.068 91.8165 92.356 91.4805 92.608 91.2285C94.456 92.2605 95.692 92.9565 96.052 93.1725C100.84 96.0045 104.848 99.7485 109.132 104.045C110.152 105.065 110.704 105.653 111.148 106.157C111.748 106.829 112.312 106.649 112.54 106.109C112.924 105.173 113.212 104.345 113.512 102.089C113.704 100.049 113.8 97.9245 113.812 95.7045C113.812 95.7045 113.812 95.7045 113.812 95.6925C113.812 95.6925 113.812 83.2605 113.812 74.5965V67.4445C113.812 67.3245 113.812 67.1445 113.8 66.9285C113.788 66.4845 113.872 65.7885 113.992 65.3685C114.304 64.3365 114.604 63.7725 117.016 61.2645C119.188 59.0205 123.124 55.5285 125.344 53.6685C125.464 53.5725 125.56 53.4765 125.632 53.3925C127.936 51.0885 123.796 49.9485 111.112 50.8365Z" fill="#FDBBC0"/>
<path id="Path_4" d="M99.364 88.72C101.08 89.944 103.948 92.992 107.26 98.008C107.428 98.272 107.548 98.392 107.692 98.452C107.8 98.5 107.956 98.488 107.86 98.296C103.672 90.7 101.176 87.22 99.94 86.236C99.316 85.744 98.728 85.396 98.44 85.216C87.136 78.184 70.348 73.156 55.324 68.404C54.448 68.128 53.584 67.852 52.72 67.576C52.552 67.528 52.396 67.468 52.228 67.42C50.668 66.928 49.132 66.436 47.632 65.944C47.44 65.884 47.26 65.812 47.116 65.728C47.044 65.692 46.984 65.644 46.924 65.608C46.648 65.404 46.576 65.176 46.9 64.996C47.2 64.828 47.896 64.744 48.58 64.708C55 64.372 66.016 64.06 77.896 64.072C89.788 64.084 97.876 64.564 107.824 65.152C108.052 65.164 108.28 65.2 108.496 65.248C108.544 65.26 108.592 65.272 108.64 65.284C109.768 65.548 110.704 66.184 111.436 67.084C111.664 67.36 111.796 67.108 111.832 66.916C112.036 65.848 111.496 64.432 113.404 62.632C118.324 57.988 124.072 54.04 125.38 52.756C126.352 51.808 125.284 51.004 122.452 50.692C123.424 50.788 124.204 50.932 124.792 51.1C122.692 50.476 118.264 50.332 111.112 50.836C72.664 53.536 34.492 60.532 26.548 62.74C25.576 63.004 25.372 63.784 25.96 64.204C45.436 78.34 62.428 94.66 72.376 106.3C76.192 110.776 78.784 108.376 80.716 105.856C84.256 101.236 88.552 96.004 91.792 92.116C92.068 91.816 92.356 91.48 92.608 91.228C95.044 88.708 97.696 87.532 99.364 88.72Z" fill="white"/>
</g>
</g>
</g>
</g>
</svg>
