<svg width="236" height="236" viewBox="0 0 236 236" fill="none" xmlns="http://www.w3.org/2000/svg">
<circle cx="118" cy="118" r="118" fill="#F7F9FB"/>
<g clip-path="url(#clip0_122_2233)">
<path d="M103.07 116.5C102.756 123.148 99.1303 132.545 87.9874 133.27C73.1099 134.261 61.602 123.281 60.7318 116.501C75.3555 116.501 94.5253 116.368 103.07 116.5Z" fill="#EAA68B"/>
<path d="M129.122 233.351C129.122 233.351 133.522 363.573 133.065 369.938L128.927 512.221L94.2898 512.861L88.7047 364.789C88.7047 364.789 85.0436 323.944 75.1747 286.016C70.1255 266.55 67.0869 246.618 66.1064 226.531L129.122 233.351Z" fill="#62000F"/>
<path d="M225.592 124.691C225.379 124.27 225.042 123.927 224.626 123.706C224.21 123.486 223.736 123.4 223.269 123.461C223.273 123.42 223.265 123.378 223.244 123.342C223.222 123.314 223.193 123.292 223.161 123.279C223.128 123.266 223.092 123.261 223.057 123.266L224.632 122.137C225.104 121.814 225.443 121.332 225.586 120.779C225.729 120.226 225.667 119.64 225.412 119.129C225.143 118.632 224.7 118.253 224.168 118.064C223.636 117.876 223.052 117.893 222.531 118.11C222.536 118.088 222.521 118.067 222.517 118.046L223.164 117.583C223.607 117.277 223.931 116.828 224.08 116.311C224.23 115.794 224.196 115.241 223.985 114.746C223.846 114.439 223.641 114.166 223.384 113.947C223.127 113.729 222.824 113.57 222.498 113.482C222.173 113.395 221.831 113.381 221.5 113.441C221.168 113.501 220.853 113.634 220.579 113.83L219.085 114.901C219.081 114.892 219.085 114.882 219.08 114.874C219.074 114.865 219.057 114.862 219.049 114.853C219.392 114.467 219.593 113.976 219.621 113.461C219.648 112.945 219.499 112.436 219.199 112.016C218.495 110.882 216.867 111.114 215.901 111.806L207.112 117.877L208.683 115.233C208.998 114.723 209.11 114.114 208.993 113.526C208.877 112.938 208.543 112.416 208.057 112.065C207.8 111.893 207.51 111.775 207.206 111.719C206.902 111.662 206.589 111.668 206.287 111.737C205.986 111.805 205.701 111.934 205.45 112.116C205.2 112.298 204.99 112.529 204.831 112.795L196.255 127.236C195.248 128.93 194.942 130.95 195.401 132.866C195.86 134.783 197.048 136.444 198.713 137.499C200.644 138.721 202.896 139.34 205.181 139.274C207.465 139.208 209.678 138.462 211.535 137.131L224.808 127.616C225.249 127.288 225.567 126.821 225.709 126.29C225.851 125.759 225.81 125.195 225.592 124.691Z" fill="#EAA68B"/>
<path opacity="0.25" d="M210.388 120.899C210.42 120.944 210.468 120.974 210.522 120.983C210.576 120.992 210.632 120.98 210.677 120.948L219.028 115.164C219.051 115.149 219.07 115.129 219.085 115.105C219.1 115.082 219.111 115.056 219.115 115.029C219.12 115.002 219.12 114.974 219.114 114.947C219.108 114.92 219.097 114.894 219.081 114.872C219.066 114.849 219.046 114.83 219.023 114.815C218.999 114.8 218.973 114.79 218.946 114.785C218.919 114.78 218.891 114.78 218.864 114.786C218.837 114.792 218.812 114.803 218.789 114.819L210.438 120.603C210.392 120.635 210.361 120.683 210.351 120.738C210.341 120.793 210.353 120.849 210.384 120.895L210.388 120.899Z" fill="#111114"/>
<g opacity="0.25">
<path d="M212.837 124.654C212.87 124.698 212.918 124.728 212.972 124.737C213.026 124.746 213.082 124.734 213.127 124.702L222.447 118.247C222.493 118.216 222.524 118.167 222.534 118.112C222.544 118.057 222.531 118.001 222.5 117.955C222.467 117.911 222.418 117.881 222.364 117.871C222.31 117.861 222.254 117.872 222.207 117.902L212.887 124.357C212.841 124.389 212.81 124.437 212.8 124.492C212.79 124.547 212.803 124.604 212.834 124.65L212.837 124.654Z" fill="#111114"/>
</g>
<path opacity="0.25" d="M215.466 128.733C215.498 128.777 215.547 128.807 215.601 128.817C215.655 128.826 215.71 128.813 215.756 128.782L223.19 123.633C223.236 123.601 223.268 123.553 223.278 123.498C223.288 123.443 223.275 123.386 223.244 123.341C223.212 123.295 223.163 123.263 223.108 123.253C223.053 123.243 222.997 123.256 222.951 123.287L215.516 128.437C215.47 128.468 215.439 128.517 215.429 128.572C215.419 128.627 215.431 128.683 215.463 128.729L215.466 128.733Z" fill="#111114"/>
<path d="M191.193 123.945L166.002 166.849L135.264 126.531L109.735 149.545L153.329 206.005L153.615 206.407C155.36 208.797 157.685 210.703 160.37 211.946C163.055 213.189 166.013 213.728 168.964 213.512C171.916 213.296 174.764 212.332 177.239 210.711C179.715 209.09 181.738 206.866 183.116 204.247L218.938 139.376L191.193 123.945Z" fill="#DF0A31"/>
<path d="M163.532 172.011C163.477 172.011 163.423 171.997 163.375 171.97C163.327 171.943 163.287 171.905 163.258 171.858C163.229 171.811 163.213 171.758 163.211 171.703C163.209 171.648 163.221 171.594 163.246 171.545L165.716 166.705C165.755 166.63 165.822 166.573 165.903 166.547C165.984 166.521 166.071 166.528 166.147 166.566C166.222 166.605 166.279 166.672 166.306 166.753C166.332 166.834 166.324 166.922 166.286 166.997L163.816 171.836C163.79 171.889 163.749 171.933 163.699 171.963C163.648 171.994 163.591 172.011 163.532 172.011Z" fill="#111114"/>
<path d="M133.49 166.605L132.721 180.156L133.36 180.193L134.129 166.641L133.49 166.605Z" fill="#111114"/>
<path d="M134.225 161.067C133.498 169.6 129.965 222.838 129.267 233.349H36.8613C36.3172 223.869 30.0358 182.416 27.9742 163.878C26.006 146.189 22.1446 137.332 24.9749 132.102C29.5999 123.555 42.2383 118.616 50.856 117.449C56.1185 116.737 64.0327 116.227 64.0327 116.227C64.0327 116.227 64.7029 129.783 80.6824 130.537C102.435 131.562 100.982 116.227 101.09 116.227C104.614 116.227 124.745 118.457 129.67 121.376C143.089 129.324 135.766 142.986 134.225 161.067Z" fill="#DF0A31"/>
<path d="M194.205 167.028L185.298 210.32C185.118 211.199 184.642 211.99 183.949 212.56C183.256 213.131 182.389 213.447 181.492 213.456L120.158 213.978C119.573 213.983 118.994 213.857 118.464 213.61C117.934 213.362 117.466 212.999 117.095 212.547C116.723 212.095 116.457 211.566 116.317 210.998C116.176 210.43 116.164 209.837 116.282 209.264L125.189 165.971C125.37 165.092 125.847 164.302 126.54 163.732C127.234 163.162 128.101 162.847 128.999 162.839L190.332 162.317C190.917 162.312 191.495 162.438 192.024 162.686C192.554 162.934 193.021 163.297 193.393 163.748C193.764 164.2 194.029 164.729 194.17 165.296C194.311 165.864 194.323 166.455 194.205 167.028Z" fill="#36373B"/>
<path d="M157.462 177.725C151.667 177.877 146.117 182.623 145.069 188.325C144.02 194.026 147.867 198.527 153.664 198.375C159.459 198.223 165.009 193.477 166.057 187.775C167.106 182.074 163.257 177.573 157.462 177.725Z" fill="#DF0A31"/>
<path d="M153.664 198.378C159.179 198.234 164.47 193.93 165.874 188.601C165.936 186.222 165.104 183.702 165.104 183.702C165.022 183.307 162.795 183.538 162.502 183.564C155.697 184.149 148.793 185.584 147.334 186C147.189 186.041 147.125 186.137 147.151 186.21C148.35 189.446 148.417 193.662 148.132 196.778C149.599 197.841 151.495 198.435 153.664 198.378Z" fill="#62000F"/>
<path d="M162.5 183.559C155.689 184.2 148.792 185.578 147.332 185.995C147.154 186.044 147.093 186.18 147.183 186.249C150.142 188.593 152.598 191.323 153.969 193.281C154.495 194.033 155.024 193.608 155.442 193.166C156.208 192.355 157.124 191.435 157.814 190.751C157.872 190.698 157.933 190.639 157.985 190.594C158.276 190.763 158.47 190.877 158.526 190.913C159.274 191.378 159.856 192.004 160.47 192.724C160.616 192.895 160.694 192.993 160.755 193.078C160.839 193.191 160.943 193.157 161 193.064C161.097 192.901 161.174 192.757 161.298 192.367C161.396 192.015 161.48 191.649 161.552 191.267C161.552 191.267 161.552 191.267 161.552 191.265C161.552 191.265 161.946 189.126 162.22 187.635L162.446 186.404C162.45 186.384 162.456 186.353 162.461 186.316C162.473 186.239 162.509 186.119 162.544 186.046C162.631 185.867 162.701 185.769 163.202 185.326C163.653 184.93 164.452 184.311 164.899 183.981C164.923 183.964 164.943 183.947 164.958 183.932C165.434 183.525 164.746 183.348 162.5 183.559Z" fill="#FDBBC0"/>
<path d="M159.246 190.132C159.507 190.335 159.913 190.846 160.333 191.694C160.354 191.739 160.371 191.759 160.395 191.769C160.412 191.777 160.44 191.774 160.429 191.741C159.937 190.453 159.61 189.866 159.425 189.702C159.332 189.62 159.24 189.563 159.195 189.534C157.441 188.375 154.663 187.587 152.186 186.838C152.041 186.795 151.899 186.751 151.757 186.707C151.729 186.7 151.703 186.69 151.676 186.683C151.418 186.605 151.165 186.528 150.918 186.45C150.887 186.44 150.858 186.429 150.835 186.415C150.824 186.409 150.815 186.401 150.805 186.395C150.763 186.361 150.758 186.323 150.82 186.29C150.878 186.26 151.003 186.242 151.123 186.233C152.257 186.146 154.194 186.042 156.271 185.989C158.351 185.937 159.75 185.982 161.471 186.038C161.511 186.039 161.55 186.044 161.586 186.051C161.594 186.053 161.602 186.055 161.61 186.057C161.799 186.097 161.943 186.202 162.042 186.354C162.073 186.4 162.104 186.356 162.117 186.323C162.186 186.138 162.137 185.897 162.527 185.579C163.535 184.757 164.665 184.051 164.934 183.824C165.134 183.657 164.973 183.523 164.488 183.483C164.655 183.495 164.786 183.516 164.884 183.542C164.536 183.444 163.766 183.44 162.5 183.559C155.689 184.2 148.791 185.579 147.332 185.995C147.154 186.045 147.093 186.18 147.183 186.25C150.142 188.593 152.598 191.324 153.969 193.281C154.495 194.034 155.024 193.609 155.442 193.166C156.207 192.355 157.124 191.435 157.814 190.751C157.872 190.698 157.933 190.639 157.985 190.595C158.491 190.15 158.992 189.936 159.246 190.132Z" fill="white"/>
<path d="M137.012 197.781C137.045 198.351 136.871 198.914 136.521 199.366C136.172 199.817 135.671 200.127 135.111 200.239L133.223 200.655C133.257 200.666 133.288 200.686 133.312 200.711C133.337 200.737 133.355 200.768 133.364 200.802C133.369 200.843 133.36 200.883 133.339 200.918C133.792 201.045 134.195 201.311 134.491 201.678C134.787 202.045 134.961 202.495 134.99 202.966C134.993 203.514 134.81 204.048 134.472 204.48C134.134 204.912 133.66 205.217 133.127 205.347L117.184 208.886C116.369 209.069 115.536 209.162 114.7 209.161C112.839 209.161 111.006 208.708 109.359 207.842C107.713 206.976 106.301 205.722 105.247 204.188C104.129 202.566 103.688 200.572 104.017 198.629C104.347 196.687 105.422 194.95 107.013 193.787L120.576 183.873C120.874 183.655 121.221 183.512 121.587 183.457L120.339 189.518L120.672 189.442L120.742 189.429L131.143 187.31C132.302 187.054 133.889 187.477 134.094 188.795C134.204 189.3 134.139 189.827 133.912 190.291C133.684 190.754 133.306 191.127 132.839 191.349C132.846 191.355 132.859 191.362 132.859 191.374C132.859 191.387 132.852 191.394 132.852 191.406L134.651 191.01C134.98 190.937 135.321 190.938 135.649 191.012C135.978 191.087 136.286 191.234 136.551 191.442C136.816 191.65 137.032 191.915 137.183 192.216C137.333 192.518 137.415 192.849 137.422 193.186C137.422 193.724 137.236 194.245 136.895 194.662C136.555 195.078 136.08 195.364 135.553 195.471L134.779 195.644C134.772 195.669 134.779 195.695 134.766 195.714C135.33 195.718 135.873 195.932 136.288 196.314C136.703 196.696 136.961 197.219 137.012 197.781Z" fill="#EAA68B"/>
<path opacity="0.25" d="M122.498 193.509C122.51 193.563 122.543 193.609 122.589 193.639C122.636 193.669 122.692 193.679 122.745 193.668L132.697 191.627C132.724 191.621 132.749 191.61 132.772 191.595C132.795 191.579 132.815 191.56 132.83 191.537C132.845 191.514 132.856 191.488 132.861 191.461C132.866 191.434 132.866 191.406 132.86 191.379C132.855 191.352 132.844 191.326 132.829 191.303C132.813 191.28 132.793 191.261 132.77 191.246C132.747 191.23 132.721 191.22 132.694 191.215C132.667 191.21 132.639 191.21 132.612 191.215L122.661 193.256C122.606 193.267 122.558 193.299 122.527 193.346C122.497 193.393 122.486 193.449 122.497 193.504L122.498 193.509Z" fill="#111114"/>
<path opacity="0.25" d="M123.277 197.924C123.29 197.978 123.322 198.024 123.369 198.054C123.415 198.084 123.471 198.094 123.524 198.083L134.631 195.806C134.685 195.794 134.733 195.762 134.764 195.715C134.794 195.669 134.805 195.612 134.794 195.557C134.781 195.504 134.749 195.457 134.702 195.427C134.656 195.396 134.601 195.384 134.546 195.394L123.439 197.672C123.412 197.677 123.386 197.688 123.363 197.703C123.34 197.719 123.321 197.738 123.305 197.761C123.29 197.784 123.28 197.81 123.274 197.837C123.269 197.864 123.269 197.892 123.275 197.919L123.277 197.924Z" fill="#111114"/>
<g opacity="0.25">
<path d="M124.094 202.707C124.106 202.76 124.139 202.807 124.185 202.837C124.231 202.866 124.287 202.877 124.341 202.866L133.2 201.049C133.227 201.043 133.253 201.032 133.275 201.017C133.298 201.001 133.318 200.982 133.333 200.959C133.348 200.935 133.359 200.91 133.364 200.883C133.369 200.856 133.369 200.828 133.363 200.801C133.358 200.774 133.347 200.748 133.332 200.725C133.316 200.702 133.296 200.683 133.273 200.667C133.25 200.652 133.224 200.642 133.197 200.637C133.17 200.631 133.142 200.632 133.115 200.637L124.256 202.454C124.202 202.465 124.154 202.497 124.123 202.544C124.092 202.59 124.081 202.647 124.093 202.702L124.094 202.707Z" fill="#111114"/>
</g>
<path d="M116.197 215.191L29.6972 230.823C26.9982 231.116 24.268 230.78 21.7208 229.841C19.1735 228.902 16.8785 227.385 15.0157 225.41C13.1529 223.435 11.7731 221.056 10.9844 218.458C10.1957 215.86 10.0197 213.115 10.4701 210.438L22.576 138.46C22.9573 136.183 23.7836 134.003 25.0076 132.045C26.2317 130.088 27.8295 128.39 29.7098 127.051C31.5901 125.711 33.716 124.755 35.966 124.237C38.2159 123.719 40.5459 123.65 42.8227 124.033C45.0995 124.416 47.2786 125.244 49.2352 126.469C51.1919 127.695 52.8879 129.294 54.2263 131.175C55.5646 133.057 56.5191 135.183 57.0352 137.434C57.5513 139.684 57.6189 142.014 57.2341 144.29L48.9775 193.84L112.394 185.876L116.197 215.191Z" fill="#DF0A31"/>
<path d="M29.6963 231.143C29.6164 231.143 29.5395 231.113 29.4807 231.059C29.4218 231.005 29.3853 230.931 29.3782 230.852C29.3711 230.772 29.3941 230.693 29.4425 230.629C29.491 230.566 29.5614 230.523 29.64 230.508L115.84 214.931L112.118 186.233L49.0169 194.158C48.9674 194.165 48.9171 194.159 48.87 194.143C48.823 194.126 48.7805 194.099 48.7461 194.063C48.7115 194.027 48.6858 193.983 48.671 193.935C48.6562 193.888 48.6528 193.837 48.661 193.788L53.9094 162.12C53.9158 162.078 53.9305 162.038 53.9526 162.002C53.9747 161.966 54.0037 161.935 54.038 161.911C54.0723 161.886 54.1112 161.869 54.1523 161.859C54.1934 161.85 54.236 161.849 54.2774 161.856C54.3189 161.863 54.3587 161.878 54.3944 161.9C54.4301 161.923 54.4611 161.952 54.4855 161.986C54.51 162.02 54.5276 162.059 54.5371 162.1C54.5466 162.141 54.548 162.183 54.5411 162.225L49.3619 193.469L112.353 185.558C112.437 185.548 112.522 185.571 112.589 185.623C112.656 185.675 112.699 185.751 112.71 185.835L116.513 215.149C116.524 215.23 116.503 215.313 116.454 215.379C116.406 215.445 116.334 215.49 116.253 215.505L29.7539 231.138C29.7349 231.141 29.7156 231.143 29.6963 231.143Z" fill="#36373B"/>
<path d="M48.9279 193.527L43.3638 194.418L43.465 195.051L49.0292 194.16L48.9279 193.527Z" fill="#36373B"/>
<path d="M115.919 79.3368C115.919 85.4577 110.957 90.4197 104.836 90.4197C98.7154 90.4197 93.7534 85.4577 93.7534 79.3368C93.7534 73.2159 98.7154 68.2539 104.836 68.2539C110.957 68.2539 115.919 73.2159 115.919 79.3368Z" fill="#FC9FA5" stroke="#FC9FA5"/>
<path d="M101.845 90.6502C108.242 90.6502 113.428 85.4644 113.428 79.0673C113.428 72.6702 108.242 67.4844 101.845 67.4844C95.4479 67.4844 90.2621 72.6702 90.2621 79.0673C90.2621 85.4644 95.4479 90.6502 101.845 90.6502Z" fill="#F6475A"/>
<path d="M106.853 80.6885C107.285 80.6044 107.686 80.404 108.013 80.1088C108.339 79.8136 108.579 79.4348 108.706 79.0134C109.008 78.0103 112.201 54.4058 102.959 40.1833C101.484 37.7359 99.4486 35.6743 97.0198 34.1688C94.5909 32.6634 91.8389 31.7572 88.9908 31.5252C88.6746 31.4917 88.355 31.5209 88.0502 31.6111C87.7454 31.7014 87.4613 31.8508 87.2143 32.051C86.9673 32.2512 86.7623 32.4981 86.6109 32.7776C86.4594 33.0572 86.3647 33.3638 86.3319 33.68C86.1942 35.0095 87.1598 34.9877 88.488 35.1303C94.9309 35.7974 95.9074 38.3282 98.9325 42.8652C107.087 55.1067 104.14 77.3963 104.074 77.6199C103.953 78.0189 103.938 78.4422 104.03 78.8488C104.121 79.2553 104.316 79.6313 104.596 79.9402C104.876 80.2491 105.231 80.4805 105.626 80.6118C106.022 80.7431 106.444 80.7699 106.853 80.6897V80.6885Z" fill="#F6475A"/>
<path d="M71.9145 100.194C71.9266 99.8557 71.9266 99.5306 71.9266 99.1801C71.9387 96.9805 71.8432 94.5875 71.6245 91.977L74.1625 91.5057L90.9362 88.3984C90.6018 92.6896 90.6669 97.0026 91.1308 101.282C91.19 101.765 91.2516 102.262 91.3229 102.757C91.3713 103.144 91.4329 103.542 91.5042 103.93C91.5755 104.318 91.6251 104.69 91.7097 105.066C91.8547 105.863 92.0239 106.661 92.2294 107.445C92.2669 107.634 92.3153 107.82 92.3744 108.003C92.3775 108.036 92.3857 108.068 92.3986 108.099C92.4952 108.498 92.6161 108.909 92.749 109.296C92.882 109.742 93.027 110.177 93.1974 110.613C93.2458 110.745 93.2941 110.891 93.3533 111.024C93.5104 111.459 93.6917 111.882 93.8851 112.292C94.0905 112.763 94.3202 113.224 94.5619 113.67C94.574 113.67 94.574 113.683 94.574 113.683C95.4853 115.468 96.7671 117.037 98.3338 118.286H67.9625C69.8358 115.049 71.7695 109.477 71.9145 100.194Z" fill="#EAA68B"/>
<path opacity="0.15" d="M94.5806 113.686L78.5393 101.412L91.1374 101.281C91.5027 105.594 92.6705 109.802 94.5806 113.686Z" fill="black"/>
<path d="M60.6729 82.1093C62.0096 89.8297 66.2239 97.1415 73.0341 99.6336C81.1183 102.595 87.1067 102.795 96.4284 102.795C109.15 102.795 108.729 89.5287 109.086 76.1608C109.448 62.7384 108.377 48.3407 103.35 43.6636C93.3187 34.3286 63.8623 40.2409 60.2801 55.8556C58.4274 63.9325 59.4015 74.76 60.6729 82.1093Z" fill="#EAA68B"/>
<path d="M116.945 43.5214C114.817 35.7189 108.185 31.9059 97.2175 34.7726C89.4174 36.8114 88.43 34.978 81.8251 31.7983C78.0423 29.977 65.6303 30.8097 62.5594 39.2092C59.2672 48.2082 49.0814 40.9206 48.1351 55.5805C47.3447 67.8511 49.7208 83.7872 63.3522 94.5121C65.527 96.6973 67.9976 98.5667 70.6918 100.065C71.8484 100.752 72.1288 100.186 72.5301 98.9088C73.9489 94.3695 76.8181 78.4986 75.6458 65.5838C75.4536 63.4591 75.85 60.1573 81.2982 59.9277C87.2492 59.6775 102.715 61.0154 108.189 57.0924C108.189 57.0864 119.073 51.3191 116.945 43.5214Z" fill="#0F1011"/>
<path d="M90.9102 76.1626C91.8773 76.1626 92.6614 75.3785 92.6614 74.4114C92.6614 73.4442 91.8773 72.6602 90.9102 72.6602C89.943 72.6602 89.1589 73.4442 89.1589 74.4114C89.1589 75.3785 89.943 76.1626 90.9102 76.1626Z" fill="#0F1011"/>
<path d="M104.725 75.0298C105.692 75.0298 106.476 74.2457 106.476 73.2786C106.476 72.3114 105.692 71.5273 104.725 71.5273C103.758 71.5273 102.974 72.3114 102.974 73.2786C102.974 74.2457 103.758 75.0298 104.725 75.0298Z" fill="#0F1011"/>
<path d="M107.76 69.5466H107.754L103.114 69.4886C102.901 69.4793 102.7 69.3879 102.554 69.2337C102.407 69.0795 102.326 68.8744 102.327 68.6615C102.328 68.4486 102.412 68.2445 102.56 68.092C102.709 67.9395 102.911 67.8506 103.124 67.8438H103.134L107.774 67.9018C107.987 67.9112 108.188 68.0027 108.334 68.157C108.481 68.3114 108.562 68.5165 108.561 68.7294C108.559 68.9423 108.475 69.1464 108.327 69.2988C108.178 69.4512 107.976 69.54 107.763 69.5466H107.76Z" fill="#0F1011"/>
<path d="M87.1295 71.239C86.9283 71.2385 86.7342 71.1643 86.5839 71.0303C86.4337 70.8964 86.3377 70.7121 86.3142 70.5122C86.2907 70.3123 86.3413 70.1107 86.4563 69.9456C86.5714 69.7804 86.7429 69.6631 86.9386 69.6159L91.5118 68.5149C91.7241 68.464 91.9481 68.4994 92.1342 68.6136C92.3204 68.7277 92.4537 68.9111 92.5046 69.1234C92.5556 69.3358 92.5201 69.5597 92.406 69.7459C92.2919 69.9321 92.1085 70.0653 91.8961 70.1163L87.3229 71.2173C87.2595 71.2316 87.1946 71.2389 87.1295 71.239Z" fill="#0F1011"/>
<path d="M81.7998 78.6914C81.8938 79.6707 81.7922 80.6589 81.5009 81.5986C81.2096 82.5383 80.7344 83.4108 80.103 84.1652C79.4717 84.9197 78.6966 85.5412 77.823 85.9935C76.9493 86.4458 75.9944 86.72 75.0139 86.8001C74.0333 86.8801 73.0467 86.7645 72.1112 86.46C71.1757 86.1554 70.3101 85.668 69.5646 85.0259C68.8192 84.3839 68.2088 83.6002 67.7689 82.7202C67.329 81.8402 67.0683 80.8816 67.0021 79.9C66.9054 78.9251 67.0058 77.9406 67.2975 77.0053C67.5891 76.07 68.0661 75.203 68.6998 74.4559C69.3336 73.7088 70.1113 73.0968 70.9865 72.6566C71.8617 72.2163 72.8166 71.9567 73.7943 71.8932C79.0854 71.7313 81.4651 74.6089 81.7998 78.6914Z" fill="#EAA68B"/>
<g opacity="0.15">
<path opacity="0.52" d="M98.6838 84.1292C98.539 84.1292 98.399 84.0774 98.2893 83.9829C98.1795 83.8885 98.1073 83.7578 98.0858 83.6147C98.0643 83.4715 98.0949 83.3254 98.172 83.2029C98.2492 83.0804 98.3677 82.9896 98.5061 82.9472L102.068 81.8534L99.5769 76.3061C99.5135 76.1603 99.5102 75.9954 99.5675 75.8472C99.6249 75.6989 99.7384 75.5792 99.8833 75.5141C100.028 75.4489 100.193 75.4435 100.342 75.499C100.491 75.5545 100.612 75.6664 100.679 75.8106L103.45 81.9815C103.486 82.0597 103.504 82.1446 103.504 82.2304C103.504 82.3162 103.486 82.401 103.45 82.4792C103.415 82.5575 103.364 82.6272 103.299 82.684C103.235 82.7407 103.159 82.783 103.077 82.8082L98.8614 84.1026C98.8039 84.1202 98.744 84.1292 98.6838 84.1292Z" fill="black"/>
</g>
<path d="M91.7196 88.2024C91.7196 88.2024 98.1842 88.884 102.718 87.3008C102.718 87.3008 102.681 91.5574 97.5667 91.9767C92.452 92.3961 91.7196 88.2024 91.7196 88.2024Z" fill="#FFF5F7"/>
<path d="M62.7143 79.3008L62.8194 79.2779C63.4425 79.1277 63.9804 78.7363 64.3149 78.1897C64.6494 77.643 64.7531 76.9859 64.6033 76.3628C64.5561 76.1634 59.9297 56.3417 68.8985 44.3478C73.1285 38.6918 79.8409 35.5918 88.864 35.1325C90.1802 35.0709 91.2244 35.141 91.1603 33.8031C91.0986 33.1738 90.8042 32.5902 90.3348 32.1666C89.8653 31.743 89.2547 31.5098 88.6223 31.5129C80.3146 30.8905 70.1494 34.5971 65.0178 41.4703C54.6942 55.2987 59.6892 76.5961 59.908 77.4964C60.0542 78.1002 60.4274 78.6245 60.9499 78.9604C61.4724 79.2964 62.1043 79.4183 62.7143 79.3008Z" fill="#F6475A"/>
<path d="M66.1538 91.3455C72.5509 91.3455 77.7367 86.1597 77.7367 79.7626C77.7367 73.3655 72.5509 68.1797 66.1538 68.1797C59.7568 68.1797 54.5709 73.3655 54.5709 79.7626C54.5709 86.1597 59.7568 91.3455 66.1538 91.3455Z" fill="#F6475A"/>
<path d="M73.6784 80.1103C73.6784 86.2312 68.7164 91.1932 62.5955 91.1932C56.4746 91.1932 51.5126 86.2312 51.5126 80.1103C51.5126 73.9893 56.4746 69.0273 62.5955 69.0273C68.7164 69.0273 73.6784 73.9893 73.6784 80.1103Z" fill="#F6787F" stroke="#F6787F"/>
<path d="M63.9952 86.2227C64.5529 88.7598 65.2739 91.2583 66.1537 93.7025C67.552 96.0157 87.352 94.9715 87.352 94.9715" stroke="#F6787F" stroke-width="3" stroke-linecap="round" stroke-linejoin="round"/>
<path d="M86.9291 97.8477H89.3837C90.9489 97.8477 92.2178 96.5788 92.2178 95.0136C92.2178 93.4483 90.9489 92.1795 89.3837 92.1795H86.9291C85.3639 92.1795 84.095 93.4483 84.095 95.0136C84.095 96.5788 85.3639 97.8477 86.9291 97.8477Z" fill="#F6475A"/>
</g>
<defs>
<clipPath id="clip0_122_2233">
<rect width="236" height="236" rx="118" fill="white"/>
</clipPath>
</defs>
</svg>
