<svg width="156" height="30" viewBox="0 0 156 30" xmlns="http://www.w3.org/2000/svg">
    <g fill-rule="nonzero" fill="none">
        <path d="M15.75 0h-4.485C3.457 0 0 3.34 0 10.29v9.63C0 26.668 3.458 30 11.265 30h4.485C23.543 30 27 26.66 27 19.92v-9.63C27 3.34 23.543 0 15.75 0z" fill="#FFF"/>
        <path d="M27 13.332c0-.3-.175-.485-.228-.562-.229-.285-.534-.47-.914-.492-2.528-.154-4.927-.27-7.935-.278-3.016-.007-5.81.077-7.44.162-.175.008-.35.03-.427.077-.083.046-.068.108.008.162a.61.61 0 0 0 .175.084c.42.147 10.113 3.01 12.984 4.82.076.046.228.13.38.261.564.478.937 1.294 2.003 3.241.023.046-.099.031-.129.023-.038-.015-.069-.046-.114-.115-.838-1.286-1.569-2.071-2.003-2.379-.426-.308-1.097 0-1.713.639 1.005.339 2.733 1.393 4.089 3.326.228.33.312.562.45.654.205.13.418-.046.517-.239.053-.092.137-.3.183-.6.007-.039.007-.077.015-.116.06-.6.099-1.224.099-1.886v-6.782z" fill="#F9A2A8"/>
        <path d="M27 21.753c-.008.037-.008.075-.015.112a1.71 1.71 0 0 1-.181.584c-.098.18-.31.36-.513.233-.143-.09-.218-.315-.445-.637-1.35-1.88-3.06-2.914-4.048-3.236l-.204.225c-.814.966-1.892 2.277-2.782 3.43-.482.63-1.138 1.229-2.096.113-2.495-2.907-6.763-6.981-11.656-10.502-.03-.023-.052-.045-.06-.075.188.345.37.697.543 1.064 2.654 5.468 3.74 13.678 3.837 16.861.611.053 1.252.075 1.923.075h4.501c7.08-.022 10.593-2.75 11.196-8.247z" fill="#4E0C15"/>
        <path d="M15.82 0h-4.506C3.473 0 0 3.348 0 10.316v9.654C0 26.155 2.908 29.48 9.409 30c-.098-3.198-1.183-11.445-3.835-16.938-.188-.353-.354-.714-.542-1.068-.06-.105.008-.248.21-.301 1.997-.55 11.248-2.355 20.897-2.957.58-.038.89-.188.859-.512C26.335 2.686 22.825 0 15.819 0z" fill="#C60629"/>
        <g fill="#111114">
            <path d="M40.487 9.773h-4.485v-3.39h12.923v3.39H44.44V24h-3.953V9.773zM48.152 17.332c0-3.967 2.55-6.937 6.556-6.937 3.915 0 6.3 2.625 6.3 6.735 0 .367-.015.735-.068 1.192h-9.188c.286 1.936 1.343 2.956 3.046 2.956 1.627 0 2.557-.608 2.902-1.83l3.06.472c-.607 2.872-2.857 4.335-5.947 4.335-4.208 0-6.66-2.872-6.66-6.922zm9.278-1.305c-.15-1.8-1.207-2.692-2.722-2.692-1.56 0-2.618.937-2.926 2.692h5.648zM62.215 19.567l3.428-.315c.203 1.666 1.275 2.25 2.835 2.25 1.365 0 1.95-.42 1.95-1.207 0-.855-.69-1.11-2.452-1.463-3.728-.772-5.31-1.815-5.295-4.282.015-2.693 2.287-4.163 5.31-4.163 3.945 0 5.625 1.86 5.798 4.718l-3.293.3c-.165-1.598-1.058-2.265-2.49-2.265-1.328 0-1.86.502-1.86 1.207 0 .773.517 1.163 2.557 1.613 3.578.787 5.258 1.68 5.243 4.162 0 2.52-2.1 4.133-5.445 4.133-3.36 0-6.045-1.41-6.286-4.688zM77.231 19.387V13.71h-2.265v-3.06h2.265V7.005l3.63-.518v4.163h3.78v3.06h-3.78v5.19c0 1.343.45 2.085 1.815 2.085a4.97 4.97 0 0 0 1.68-.285l.57 3.023c-.907.3-1.845.45-2.94.45-3.277 0-4.755-1.748-4.755-4.785zM85.954 15.188c0-5.49 3.293-9.068 8.723-9.068 4.298 0 7.11 1.995 7.778 6.3l-3.915.652c-.42-2.617-1.83-3.614-3.983-3.614-2.873 0-4.553 2.002-4.553 5.662 0 3.548 1.628 5.827 4.733 5.827 2.1 0 3.675-1.057 4.035-3.442H94.37v-2.902h8.152V24H99.62l-.098-3.045c-.84 2.168-2.805 3.308-5.572 3.308-4.838-.008-7.996-3.683-7.996-9.076zM105.448 5.085h3.63V24h-3.63zM113.578 4.957c1.223 0 2.25.96 2.25 2.153 0 1.207-1.027 2.167-2.25 2.167-1.193 0-2.22-.96-2.22-2.167 0-1.185 1.027-2.153 2.22-2.153zm-1.8 5.693h3.63V24h-3.63V10.65zM117.38 17.303c0-4.17 2.356-6.908 5.933-6.908 1.913 0 3.196.705 3.983 2.032V5.085h3.63V24h-3.12l-.165-2.55c-.727 1.785-2.13 2.805-4.335 2.805-3.563 0-5.925-2.752-5.925-6.952zm6.736 3.742c1.98 0 3.293-1.508 3.293-3.742 0-2.206-1.328-3.66-3.293-3.66s-3.09 1.41-3.09 3.66c0 2.28 1.125 3.742 3.09 3.742zM132.966 17.332c0-3.967 2.55-6.937 6.556-6.937 3.915 0 6.3 2.625 6.3 6.735 0 .367-.015.735-.067 1.192h-9.188c.285 1.936 1.342 2.956 3.045 2.956 1.627 0 2.557-.608 2.902-1.83l3.06.472c-.607 2.872-2.857 4.335-5.947 4.335-4.208 0-6.66-2.872-6.66-6.922zm9.278-1.305c-.15-1.8-1.207-2.692-2.722-2.692-1.56 0-2.618.937-2.925 2.692h5.647zM147.877 10.65h3.18l.038 2.775c.742-2.13 2.437-3.398 4.905-2.97v3.915c-2.355-.487-4.523.555-4.523 3.607v6h-3.607V10.65h.007z"/>
        </g>
    </g>
</svg>
