<svg width="48" height="48" viewBox="0 0 48 48" fill="none" xmlns="http://www.w3.org/2000/svg">
<path d="M24.3247 15.1386C25.408 15.1386 26.7659 14.4062 27.5745 13.4297C28.3069 12.5448 28.8409 11.3089 28.8409 10.0731C28.8409 9.90525 28.8256 9.73741 28.7951 9.6001C27.5898 9.64587 26.1403 10.4087 25.2707 11.431C24.5841 12.2091 23.9585 13.4297 23.9585 14.6808C23.9585 14.8639 23.989 15.047 24.0043 15.108C24.0806 15.1233 24.2026 15.1386 24.3247 15.1386ZM20.5103 33.6001C21.9903 33.6001 22.6464 32.6084 24.4925 32.6084C26.3692 32.6084 26.7811 33.5696 28.429 33.5696C30.0462 33.5696 31.1295 32.0744 32.1518 30.6096C33.2961 28.9313 33.7691 27.2835 33.7996 27.2072C33.6928 27.1767 30.5955 25.9103 30.5955 22.3553C30.5955 19.2733 33.0367 17.8849 33.174 17.7781C31.5567 15.459 29.1003 15.3979 28.429 15.3979C26.6133 15.3979 25.1333 16.4965 24.2026 16.4965C23.1956 16.4965 21.8682 15.459 20.2967 15.459C17.3063 15.459 14.27 17.9307 14.27 22.5995C14.27 25.4984 15.3991 28.5651 16.7875 30.5486C17.9776 32.2269 19.0151 33.6001 20.5103 33.6001Z" fill="black"/>
</svg>
