<svg width="48" height="48" viewBox="0 0 48 48" fill="none" xmlns="http://www.w3.org/2000/svg">
<circle cx="24" cy="24" r="24" fill="white"/>
<path fill-rule="evenodd" clip-rule="evenodd" d="M44 24C44 12.9552 35.0448 4 24 4C12.9552 4 4 12.9552 4 24C4 33.9817 11.3127 42.2562 20.8753 43.7582V29.7826H15.7958V24H20.8753V19.5927C20.8753 14.5807 23.8622 11.8103 28.4297 11.8103C30.6179 11.8103 32.9073 12.2013 32.9073 12.2013V17.1233H30.3844C27.901 17.1233 27.1247 18.6646 27.1247 20.248V23.9998H32.671L31.785 29.7825H27.1245V43.7581C36.6872 42.2588 43.9998 33.9843 43.9998 23.9998L44 24Z" fill="#1977F3"/>
<path fill-rule="evenodd" clip-rule="evenodd" d="M31.7851 29.7822L32.6711 23.9996H27.1248V20.2477C27.1248 18.6671 27.8982 17.123 30.3845 17.123H32.9074V12.201C32.9074 12.201 30.6181 11.8101 28.4298 11.8101C23.8623 11.8101 20.8754 14.5777 20.8754 19.5924V23.9997H15.7959V29.7823H20.8754V43.758C21.8935 43.918 22.937 43.9997 24.0001 43.9997C25.0632 43.9997 26.1067 43.9153 27.1248 43.758V29.7823H31.7852L31.7851 29.7822Z" fill="white"/>
</svg>
