<svg width="48" height="48" viewBox="0 0 48 48" fill="none" xmlns="http://www.w3.org/2000/svg">
  <circle cx="24" cy="24" r="24" fill="white" />
  <path fill-rule="evenodd" clip-rule="evenodd"
    d="M41.28 24.4091C41.28 23.1327 41.1655 21.9055 40.9527 20.7273H24V27.69H33.6873C33.27 29.94 32.0018 31.8464 30.0955 33.1227V37.6391H35.9127C39.3164 34.5055 41.28 29.8909 41.28 24.4091Z"
    fill="#4285F4" />
  <path fill-rule="evenodd" clip-rule="evenodd"
    d="M24 41.9999C28.86 41.9999 32.9346 40.3881 35.9127 37.639L30.0955 33.1226C28.4836 34.2026 26.4218 34.8408 24 34.8408C19.3118 34.8408 15.3436 31.6745 13.9282 27.4199H7.91455V32.0836C10.8764 37.9663 16.9636 41.9999 24 41.9999Z"
    fill="#34A853" />
  <path fill-rule="evenodd" clip-rule="evenodd"
    d="M13.9282 27.4199C13.5682 26.3399 13.3636 25.1863 13.3636 23.9999C13.3636 22.8135 13.5682 21.6599 13.9282 20.5799V15.9163H7.91455C6.69545 18.3463 6 21.0954 6 23.9999C6 26.9044 6.69545 29.6535 7.91455 32.0835L13.9282 27.4199Z"
    fill="#FBBC05" />
  <path fill-rule="evenodd" clip-rule="evenodd"
    d="M24 13.1591C26.6427 13.1591 29.0155 14.0673 30.8809 15.8509L36.0436 10.6882C32.9264 7.78364 28.8518 6 24 6C16.9636 6 10.8764 10.0336 7.91455 15.9164L13.9282 20.58C15.3436 16.3255 19.3118 13.1591 24 13.1591Z"
    fill="#EA4335" />
</svg>
