<svg width="126" height="49" fill="none" xmlns="http://www.w3.org/2000/svg"><path d="M19.34 48.684c10.62 0 18.288-6.336 18.288-16.02 0-9.288-5.328-15.48-14.868-15.48-4.032 0-7.092.936-9.828 3.276l.792-10.548H34.82V1.2H5.264L3.572 24.78l8.496 4.644c2.124-2.664 4.464-3.852 7.524-3.852 5.04 0 7.416 2.7 7.38 7.128 0 4.752-2.988 7.2-7.56 7.2-4.248 0-7.812-2.196-8.568-7.236L.908 33.708C2.132 43.428 8.9 48.684 19.34 48.684zm42.028 0c12.96 0 19.26-8.928 19.26-24.084C80.628 9.444 74.04.516 61.368.516 48.66.516 42.072 9.444 42.072 24.6c0 15.156 6.3 24.084 19.296 24.084zM52.44 24.6c0-9.396 2.808-15.48 8.928-15.48 6.084 0 8.892 6.084 8.892 15.48 0 9.432-2.808 15.48-8.892 15.48-6.12 0-8.928-6.048-8.928-15.48zm54.438 14.364h8.568v-10.08h9.756v-8.496h-9.756v-10.08h-8.568v10.08h-9.756v8.496h9.756v10.08z" fill="#36373B"/></svg>