<svg width="140" height="152" fill="none" xmlns="http://www.w3.org/2000/svg"><path d="M134.78 80.493l-24.7 21.327-87.352-12.09C42.754 72.443 90.48 62.373 134.78 65.12v15.373z" fill="#541104"/><path d="M110.132 3.518a.653.653 0 00-.554-.649 82.57 82.57 0 00-2.949-.36l-.631-.066a81.544 81.544 0 00-2.846-.236l-.477-.026a68.214 68.214 0 00-2.588-.112l-.477-.013a78.232 78.232 0 00-2.788-.013l-.605.013c-1.043.02-1.957.053-2.846.105h-.02c-11.37.65-22.091 3.711-31.872 9.107L47.757 18.84a.585.585 0 00-.084.052c-.869.479-1.719.97-2.562 1.489a64.32 64.32 0 00-1.797 1.127l-.11.072c-.572.374-1.139.754-1.7 1.141l-.147.105c-.547.38-1.095.767-1.636 1.167l-.16.118c-.535.393-1.063.793-1.591 1.206l-.161.118a93.26 93.26 0 00-1.558 1.253l-.148.124a74 74 0 00-1.533 1.311l-.129.112a60.98 60.98 0 00-1.526 1.383l-.096.092a64.82 64.82 0 00-1.526 1.468l-.052.053C14.918 47.385 5.955 70.443 6.001 96.162c0 .328.237.603.553.65l89.303 12.731a.632.632 0 00.4-.072l13.72-7.572a.654.654 0 00.335-.577l-.18-97.804z" fill="#541104"/><path d="M48.066 19.41l13.722-7.572c13.786-7.612 30.147-10.824 47.707-8.32l-13.722 7.573c-17.56-2.505-40.682 4.438-47.707 8.32z" fill="#FF9F81"/><path d="M95.768 11.09l13.721-7.572.18 97.804-13.721 7.572-.18-97.803z" fill="#CE4D3C"/><path d="M79.682 10.383L93.403 2.81a81.062 81.062 0 0116.085.715l-13.722 7.572a81.064 81.064 0 00-16.084-.714z" fill="#FF8864"/><path d="M95.767 11.09l.18 97.804L6.645 96.162c-.097-54.022 39.8-92.106 89.122-85.071z" fill="#FD6636"/><path d="M30.16 33.257C46.348 17.319 69 9.209 94.1 12.789l1.674-1.698C69.792 7.387 46.438 16.198 30.16 33.257z" fill="#FEB69E"/><path d="M94.094 12.789l.18 95.017 1.674 1.088-.18-97.803-1.674 1.698z" fill="#E65A39"/><path d="M75.201 60.458L66.49 49.66c-3.084-3.829-7.128-6.097-11.172-6.674-4.043-.577-8.087.538-11.171 3.488-6.162 5.894-6.143 16.895.045 24.559l8.712 10.804c1.03 1.279 2.382 2.04 3.728 2.236 1.346.19 2.692-.184 3.722-1.167l3.715-3.56-9.961-12.352-4.965 4.754-2.479-3.082c-4.81-5.966-4.835-14.515-.032-19.11 2.402-2.295 5.544-3.167 8.687-2.722 3.142.453 6.29 2.223 8.699 5.206l2.485 3.081-4.964 4.753 9.954 12.333 3.716-3.56c2.067-1.974 2.06-5.626-.007-8.189z" fill="#fff"/><path d="M25.854 142h8.96v-2.48h-6V127.2h-2.96V142zm11.503 0h2.92v-11.2h-2.92V142zm1.48-13c1 0 1.74-.68 1.74-1.6 0-.96-.74-1.6-1.74-1.6-1.02 0-1.76.64-1.76 1.6 0 .92.74 1.6 1.76 1.6zm7.994 13.28c2.92 0 4.46-1.58 4.46-3.54 0-2.08-1.64-2.82-3.12-3.38-1.18-.44-2.28-.74-2.28-1.56 0-.64.48-1.08 1.48-1.08.84 0 1.62.4 2.42.96l1.32-1.78c-.94-.7-2.18-1.38-3.82-1.38-2.52 0-4.16 1.42-4.16 3.44 0 1.86 1.64 2.72 3.06 3.26 1.18.46 2.34.84 2.34 1.68 0 .7-.5 1.18-1.62 1.18-1.04 0-2-.44-3-1.22l-1.34 1.84c1.1.92 2.76 1.58 4.26 1.58zm10.534 0c.98 0 1.76-.22 2.36-.42l-.48-2.14c-.3.12-.74.24-1.1.24-1 0-1.52-.6-1.52-1.88v-4.96h2.76v-2.32h-2.76v-3h-2.46l-.34 3-1.72.14v2.18h1.58v4.96c0 2.52 1.02 4.2 3.68 4.2zm8.987 0c1.4 0 2.82-.48 3.92-1.24l-1-1.8c-.8.5-1.6.78-2.52.78-1.66 0-2.86-.96-3.1-2.8h6.9c.08-.26.14-.8.14-1.34 0-3.1-1.6-5.36-4.68-5.36-2.68 0-5.22 2.26-5.22 5.9 0 3.68 2.44 5.86 5.56 5.86zm-2.74-7c.22-1.64 1.26-2.48 2.44-2.48 1.44 0 2.12.96 2.12 2.48h-4.56zm9.701 6.72h2.92v-7.7c.84-.82 1.42-1.26 2.34-1.26 1.1 0 1.58.62 1.58 2.34V142h2.94v-6.98c0-2.82-1.04-4.5-3.46-4.5-1.52 0-2.66.8-3.64 1.76h-.08l-.2-1.48h-2.4V142zm13.013 0h2.92v-11.2h-2.92V142zm1.48-13c1 0 1.74-.68 1.74-1.6 0-.96-.74-1.6-1.74-1.6-1.02 0-1.76.64-1.76 1.6 0 .92.74 1.6 1.76 1.6zm4.794 13h2.92v-7.7c.84-.82 1.42-1.26 2.34-1.26 1.1 0 1.58.62 1.58 2.34V142h2.94v-6.98c0-2.82-1.04-4.5-3.46-4.5-1.52 0-2.66.8-3.64 1.76h-.08l-.2-1.48h-2.4V142zm16.952 4.86c3.74 0 6.08-1.72 6.08-3.98 0-1.96-1.46-2.8-4.16-2.8h-1.9c-1.32 0-1.76-.32-1.76-.92 0-.44.16-.7.48-.96.48.16 1 .26 1.44.26 2.4 0 4.32-1.28 4.32-3.8 0-.7-.22-1.32-.52-1.7h1.92v-2.16h-4.04c-.46-.16-1.06-.28-1.68-.28-2.38 0-4.52 1.42-4.52 4.06 0 1.3.72 2.36 1.48 2.92v.08c-.66.48-1.24 1.26-1.24 2.1 0 .92.44 1.5 1.02 1.88v.1c-1.02.58-1.6 1.38-1.6 2.32 0 1.98 2.04 2.88 4.68 2.88zm.18-10.22c-.98 0-1.76-.74-1.76-2.06s.76-2.06 1.76-2.06 1.74.74 1.74 2.06-.76 2.06-1.74 2.06zm.26 8.36c-1.64 0-2.68-.54-2.68-1.48 0-.46.24-.9.74-1.3.4.1.88.16 1.56.16h1.36c1.2 0 1.86.2 1.86 1 0 .88-1.16 1.62-2.84 1.62z" fill="#36373B"/></svg>