<svg width="140" height="152" fill="none" xmlns="http://www.w3.org/2000/svg"><path d="M134.249 80.556l-24.7 20.946-87.352-11.874c20.026-16.98 67.751-26.87 112.052-24.172v15.1z" fill="#0B2283"/><path d="M109.601 4.955a.646.646 0 00-.554-.637 84.28 84.28 0 00-2.949-.354l-.631-.065a82.965 82.965 0 00-2.846-.231l-.477-.026a69.52 69.52 0 00-2.588-.11l-.477-.012a79.642 79.642 0 00-2.788-.013l-.605.013a71.49 71.49 0 00-2.846.103h-.02c-11.37.637-22.092 3.644-31.873 8.943l-13.721 7.437a.589.589 0 00-.084.052c-.87.47-1.719.953-2.563 1.462-.605.36-1.204.727-1.796 1.107l-.11.071c-.573.367-1.14.74-1.7 1.12l-.148.103c-.547.374-1.094.754-1.635 1.146l-.16.116c-.535.387-1.063.78-1.591 1.185l-.161.116c-.522.406-1.044.811-1.559 1.23l-.148.122c-.515.425-1.03.85-1.532 1.288l-.129.11c-.515.444-1.024.895-1.526 1.358l-.097.09a64.22 64.22 0 00-1.526 1.443l-.051.051C14.387 48.04 5.424 70.685 5.469 95.945c0 .322.238.593.554.638l89.302 12.504a.642.642 0 00.4-.071l13.721-7.437a.639.639 0 00.335-.566l-.18-96.058z" fill="#0B2283"/><path d="M47.535 20.564l13.722-7.437C75.043 5.65 91.404 2.496 108.963 4.956l-13.721 7.437c-17.56-2.46-40.682 4.359-47.707 8.17z" fill="#83ABFF"/><path d="M95.236 12.393l13.722-7.437.18 96.057-13.721 7.437-.18-96.057z" fill="#0E3A9A"/><path d="M79.15 11.697L92.872 4.26a82.523 82.523 0 0116.085.702L95.235 12.4a82.513 82.513 0 00-16.085-.702z" fill="#5A91FF"/><path d="M95.236 12.393l.18 96.057L6.113 95.945c-.096-53.057 39.8-90.461 89.123-83.552z" fill="#175FFC"/><path d="M29.629 34.163c16.188-15.653 38.84-23.618 63.94-20.103l1.673-1.667c-25.981-3.638-49.335 5.016-65.613 21.77z" fill="#ABC5FE"/><path d="M93.563 14.06l.18 93.321 1.674 1.069-.18-96.057-1.674 1.667z" fill="#1455DC"/><path d="M78.771 60.672l-18.12-21.989c-1.287.013-2.459.303-3.695.805-1.816.76-3.503 1.951-4.939 3.303-2.415 2.267-4.514 5.306-4.939 8.635-3.155.026-6.252 1.854-8.667 4.114-2.408 2.267-4.507 5.306-4.938 8.635l18.177 22.06a.986.986 0 00.618.335c.232.032.464-.02.618-.167.123-.116.123-.252.245-.367.863-2.55 2.717-5.48 4.507-7.154 2.409-2.254 5.512-4.089 8.66-4.121.625-2.846 2.834-6.658 4.94-8.635 2.034-1.906 4.513-3.432 7.166-3.928.193-.038.245-.09.367-.206.316-.283.31-.946 0-1.32zM68.765 63.12c-2.093 1.964-4.32 5.789-4.939 8.635L49.551 54.439c.624-2.846 2.833-6.658 4.939-8.634 1.487-1.391 3.155-2.55 4.938-3.31L73.71 59.822c-1.79.734-3.458 1.906-4.945 3.297z" fill="#fff"/><path d="M53.06 56.017l2.061 2.505c.605-2.28 2.106-4.624 4.327-6.71 1.095-1.024 2.247-1.88 3.413-2.511l-1.88-2.286a19.895 19.895 0 00-3.394 2.537c-2.093 1.97-3.638 4.198-4.527 6.465zm3.297 4.005l2.067 2.505c.6-2.28 2.1-4.623 4.327-6.71 1.095-1.023 2.248-1.88 3.407-2.51l-1.88-2.287c-1.153.696-2.325 1.533-3.394 2.537-2.093 1.983-3.619 4.218-4.527 6.465zm3.317 4.024l2.06 2.505c.606-2.28 2.119-4.617 4.34-6.697 1.095-1.023 2.247-1.88 3.413-2.51l-1.88-2.293a18.79 18.79 0 00-3.406 2.524c-2.093 1.977-3.639 4.205-4.527 6.471z" fill="#fff"/><path d="M34.053 129.54h1.92c1.9 0 2.94.54 2.94 2.14 0 1.58-1.04 2.38-2.94 2.38h-1.92v-4.52zm8.4 12.46l-3.46-6.06c1.7-.66 2.82-2.04 2.82-4.26 0-3.4-2.46-4.48-5.56-4.48h-5.16V142h2.96v-5.6h2.06l3.04 5.6h3.3zm6.858.28c1.4 0 2.82-.48 3.92-1.24l-1-1.8c-.8.5-1.6.78-2.52.78-1.66 0-2.86-.96-3.1-2.8h6.9c.08-.26.14-.8.14-1.34 0-3.1-1.6-5.36-4.68-5.36-2.68 0-5.22 2.26-5.22 5.9 0 3.68 2.44 5.86 5.56 5.86zm-2.74-7c.22-1.64 1.26-2.48 2.44-2.48 1.44 0 2.12.96 2.12 2.48h-4.56zm12.188 7c1.28 0 2.4-.64 3.38-1.48h.06l.22 1.2h2.4v-6.54c0-3.24-1.46-4.94-4.3-4.94-1.76 0-3.36.66-4.68 1.48l1.06 1.94c1.04-.6 2.04-1.06 3.08-1.06 1.38 0 1.86.84 1.9 1.94-4.5.48-6.44 1.74-6.44 4.14 0 1.9 1.32 3.32 3.32 3.32zm.96-2.3c-.86 0-1.48-.38-1.48-1.26 0-1 .92-1.74 3.64-2.1v2.26c-.7.7-1.32 1.1-2.16 1.1zm12.236 2.3c1.16 0 2.28-.64 3.1-1.44h.06l.24 1.16h2.38v-15.96h-2.94v3.94l.12 1.76c-.8-.74-1.58-1.22-2.84-1.22-2.42 0-4.7 2.24-4.7 5.9s1.8 5.86 4.58 5.86zm.76-2.42c-1.48 0-2.32-1.16-2.32-3.48 0-2.24 1.06-3.44 2.32-3.44.7 0 1.4.22 2.08.84v4.92c-.64.84-1.3 1.16-2.08 1.16zm8.372 2.14h2.92v-11.2h-2.92V142zm1.48-13c1 0 1.74-.68 1.74-1.6 0-.96-.74-1.6-1.74-1.6-1.02 0-1.76.64-1.76 1.6 0 .92.74 1.6 1.76 1.6zm4.794 13h2.92v-7.7c.84-.82 1.42-1.26 2.34-1.26 1.1 0 1.58.62 1.58 2.34V142h2.94v-6.98c0-2.82-1.04-4.5-3.46-4.5-1.52 0-2.66.8-3.64 1.76h-.08l-.2-1.48h-2.4V142zm16.952 4.86c3.74 0 6.08-1.72 6.08-3.98 0-1.96-1.46-2.8-4.16-2.8h-1.9c-1.32 0-1.76-.32-1.76-.92 0-.44.16-.7.48-.96.48.16 1 .26 1.44.26 2.4 0 4.32-1.28 4.32-3.8 0-.7-.22-1.32-.52-1.7h1.92v-2.16h-4.04c-.46-.16-1.06-.28-1.68-.28-2.38 0-4.52 1.42-4.52 4.06 0 1.3.72 2.36 1.48 2.92v.08c-.66.48-1.24 1.26-1.24 2.1 0 .92.44 1.5 1.02 1.88v.1c-1.02.58-1.6 1.38-1.6 2.32 0 1.98 2.04 2.88 4.68 2.88zm.18-10.22c-.98 0-1.76-.74-1.76-2.06s.76-2.06 1.76-2.06 1.74.74 1.74 2.06-.76 2.06-1.74 2.06zm.26 8.36c-1.64 0-2.68-.54-2.68-1.48 0-.46.24-.9.74-1.3.4.1.88.16 1.56.16h1.36c1.2 0 1.86.2 1.86 1 0 .88-1.16 1.62-2.84 1.62z" fill="#36373B"/></svg>