<svg width="773" height="52" fill="none" xmlns="http://www.w3.org/2000/svg"><circle cx="25" cy="8" r="8" fill="#B0D909"/><circle cx="746" cy="8" r="8" fill="#F6475A"/><path d="M58 8h656" stroke="url(#paint0_linear_6138_6060)" stroke-width="2" stroke-dasharray="4 4"/><path d="M4.582 46.196c2.394 0 3.808-1.442 3.808-3.136 0-1.498-.826-2.296-2.086-2.814l-1.358-.574c-.882-.35-1.624-.616-1.624-1.358 0-.686.588-1.092 1.498-1.092.854 0 1.54.308 2.198.854l1.05-1.302c-.84-.854-2.044-1.33-3.248-1.33-2.1 0-3.584 1.302-3.584 2.996 0 1.512 1.05 2.352 2.1 2.786l1.386.588c.924.392 1.554.63 1.554 1.4 0 .728-.574 1.19-1.652 1.19-.91 0-1.89-.462-2.632-1.148l-1.19 1.428a5.52 5.52 0 003.78 1.512zM13.215 46h2.072v-8.638h2.94V35.64h-7.924v1.722h2.912V46zm9.269-4.27l.308-1.134a74.62 74.62 0 00.882-3.388h.056c.308 1.12.588 2.31.91 3.388l.308 1.134h-2.464zm3.64 4.27h2.17l-3.332-10.36h-2.436L19.208 46h2.1l.728-2.66h3.36l.728 2.66zm6.714-8.722h1.344c1.33 0 2.058.378 2.058 1.498 0 1.106-.728 1.666-2.058 1.666h-1.344v-3.164zM38.718 46l-2.422-4.242c1.19-.462 1.974-1.428 1.974-2.982 0-2.38-1.722-3.136-3.892-3.136h-3.612V46h2.072v-3.92h1.442L36.408 46h2.31zm4.65 0h2.072v-8.638h2.94V35.64h-7.924v1.722h2.912V46zm677.131 0h2.072v-4.2h3.682v-1.736h-3.682v-2.702h4.312V35.64h-6.384V46zm9.449 0h2.072V35.64h-2.072V46zm5.882 0h1.96v-4.158c0-1.19-.154-2.492-.252-3.612h.07l1.05 2.226L741.654 46h2.1V35.64h-1.96v4.13c0 1.176.154 2.548.266 3.626h-.07l-1.036-2.24-3.01-5.516h-2.114V46zm11.746 0h2.072V35.64h-2.072V46zm8.975.196c2.394 0 3.808-1.442 3.808-3.136 0-1.498-.826-2.296-2.086-2.814l-1.358-.574c-.882-.35-1.624-.616-1.624-1.358 0-.686.588-1.092 1.498-1.092.854 0 1.54.308 2.198.854l1.05-1.302c-.84-.854-2.044-1.33-3.248-1.33-2.1 0-3.584 1.302-3.584 2.996 0 1.512 1.05 2.352 2.1 2.786l1.386.588c.924.392 1.554.63 1.554 1.4 0 .728-.574 1.19-1.652 1.19-.91 0-1.89-.462-2.632-1.148l-1.19 1.428a5.52 5.52 0 003.78 1.512zm6.902-.196h2.072v-4.48h3.92V46h2.058V35.64h-2.058v4.074h-3.92V35.64h-2.072V46zm-452.2.196c1.974 0 3.64-1.106 3.64-3.01 0-1.358-.896-2.226-2.072-2.548v-.07c1.106-.434 1.736-1.246 1.736-2.366 0-1.778-1.358-2.758-3.36-2.758-1.218 0-2.212.49-3.108 1.274l1.05 1.26c.616-.56 1.218-.91 1.96-.924.882.014 1.386.49 1.386 1.302 0 .924-.616 1.582-2.52 1.582v1.484c2.254 0 2.856.63 2.856 1.652 0 .924-.714 1.442-1.764 1.442-.938 0-1.694-.462-2.31-1.064l-.966 1.302c.728.826 1.834 1.442 3.472 1.442zM322.627 46h2.072v-4.48h3.92V46h2.058V35.64h-2.058v4.074h-3.92V35.64h-2.072V46zm15.972.196c2.744 0 4.634-2.058 4.634-5.418 0-3.36-1.89-5.334-4.634-5.334-2.744 0-4.634 1.96-4.634 5.334 0 3.36 1.89 5.418 4.634 5.418zm0-1.792c-1.54 0-2.52-1.414-2.52-3.626 0-2.226.98-3.556 2.52-3.556s2.52 1.33 2.52 3.556c0 2.212-.98 3.626-2.52 3.626zm11.893 1.792c2.534 0 4.004-1.414 4.004-4.858V35.64h-1.988v5.88c0 2.156-.784 2.884-2.016 2.884-1.218 0-1.96-.728-1.96-2.884v-5.88h-2.072v5.698c0 3.444 1.512 4.858 4.032 4.858zm9.829-8.918h1.344c1.33 0 2.058.378 2.058 1.498 0 1.106-.728 1.666-2.058 1.666h-1.344v-3.164zm5.88 8.722l-2.422-4.242c1.19-.462 1.974-1.428 1.974-2.982 0-2.38-1.722-3.136-3.892-3.136h-3.612V46h2.072v-3.92h1.442l2.128 3.92h2.31zm5.726.196c2.394 0 3.808-1.442 3.808-3.136 0-1.498-.826-2.296-2.086-2.814l-1.358-.574c-.882-.35-1.624-.616-1.624-1.358 0-.686.588-1.092 1.498-1.092.854 0 1.54.308 2.198.854l1.05-1.302c-.84-.854-2.044-1.33-3.248-1.33-2.1 0-3.584 1.302-3.584 2.996 0 1.512 1.05 2.352 2.1 2.786l1.386.588c.924.392 1.554.63 1.554 1.4 0 .728-.574 1.19-1.652 1.19-.91 0-1.89-.462-2.632-1.148l-1.19 1.428a5.52 5.52 0 003.78 1.512zM383.261 46h2.072v-4.2h3.682v-1.736h-3.682v-2.702h4.312V35.64h-6.384V46zm13.426.196c2.534 0 4.004-1.414 4.004-4.858V35.64h-1.988v5.88c0 2.156-.784 2.884-2.016 2.884-1.218 0-1.96-.728-1.96-2.884v-5.88h-2.072v5.698c0 3.444 1.512 4.858 4.032 4.858zm7.756-.196h6.272v-1.736h-4.2V35.64h-2.072V46zm9.34 0h6.272v-1.736h-4.2V35.64h-2.072V46zm15.83 0h2.072v-8.638h2.94V35.64h-7.924v1.722h2.912V46zm7.952 0h6.51v-1.736h-4.438v-2.772h3.64v-1.736h-3.64v-2.394h4.284V35.64h-6.356V46zm12.968.196c2.394 0 3.808-1.442 3.808-3.136 0-1.498-.826-2.296-2.086-2.814l-1.358-.574c-.882-.35-1.624-.616-1.624-1.358 0-.686.588-1.092 1.498-1.092.854 0 1.54.308 2.198.854l1.05-1.302c-.84-.854-2.044-1.33-3.248-1.33-2.1 0-3.584 1.302-3.584 2.996 0 1.512 1.05 2.352 2.1 2.786l1.386.588c.924.392 1.554.63 1.554 1.4 0 .728-.574 1.19-1.652 1.19-.91 0-1.89-.462-2.632-1.148l-1.19 1.428a5.52 5.52 0 003.78 1.512zm8.632-.196h2.072v-8.638h2.94V35.64h-7.924v1.722h2.912V46z" fill="#000"/><defs><linearGradient id="paint0_linear_6138_6060" x1="58" y1="8" x2="714" y2="8" gradientUnits="userSpaceOnUse"><stop stop-color="#B0D909"/><stop offset="1" stop-color="#F6475A"/></linearGradient></defs></svg>