<svg width="140" height="152" fill="none" xmlns="http://www.w3.org/2000/svg"><path d="M134.78 80.493l-24.7 21.327-87.352-12.09C42.754 72.443 90.48 62.373 134.78 65.12v15.373z" fill="#4C3205"/><path d="M110.132 3.518a.653.653 0 00-.554-.649 82.57 82.57 0 00-2.949-.36l-.631-.066a81.544 81.544 0 00-2.846-.236l-.477-.026a68.214 68.214 0 00-2.588-.112l-.477-.013a78.233 78.233 0 00-2.788-.013l-.605.013c-1.043.02-1.957.053-2.846.105h-.02c-11.37.65-22.091 3.711-31.872 9.107L47.757 18.84a.585.585 0 00-.084.052c-.869.479-1.719.97-2.562 1.489a64.32 64.32 0 00-1.797 1.127l-.11.072c-.572.374-1.139.754-1.7 1.141l-.147.105c-.547.38-1.095.767-1.636 1.167l-.16.118c-.535.393-1.063.793-1.591 1.206l-.161.118c-.522.413-1.043.826-1.558 1.253l-.148.124a74 74 0 00-1.533 1.311l-.129.112a60.98 60.98 0 00-1.526 1.383l-.096.092c-.516.479-1.024.97-1.526 1.468l-.052.053C14.918 47.385 5.955 70.443 6.001 96.162c0 .328.237.603.553.65l89.303 12.731a.632.632 0 00.4-.072l13.72-7.572a.654.654 0 00.335-.577l-.18-97.804z" fill="#4C3205"/><path d="M48.066 19.41l13.722-7.572c13.786-7.612 30.147-10.824 47.707-8.32l-13.722 7.573c-17.56-2.505-40.682 4.438-47.707 8.32z" fill="#FFDB8A"/><path d="M95.768 11.09l13.721-7.572.18 97.804-13.721 7.572-.18-97.803z" fill="#CE9F41"/><path d="M79.682 10.383L93.403 2.81a81.062 81.062 0 0116.085.715l-13.722 7.572a81.064 81.064 0 00-16.084-.714z" fill="#FFD278"/><path d="M95.767 11.09l.18 97.804L6.645 96.162c-.097-54.022 39.8-92.106 89.122-85.071z" fill="#FEC62E"/><path d="M30.16 33.257C46.348 17.319 69 9.209 94.1 12.789l1.674-1.698C69.792 7.387 46.438 16.198 30.16 33.257z" fill="#FEE49B"/><path d="M94.094 12.789l.18 95.017 1.674 1.088-.18-97.803-1.674 1.698z" fill="#E6B338"/><path d="M56.521 67.742c1.346.19 2.692-.184 3.722-1.167 2.06-1.98 2.041-5.612-.026-8.182l-7.45-9.264c-1.036-1.285-2.382-2.045-3.734-2.235-1.353-.19-2.692.183-3.722 1.173-2.06 1.974-2.054 5.625.013 8.182l7.469 9.257c1.03 1.279 2.382 2.04 3.728 2.236z" fill="#fff"/><path d="M66.109 71.118c3.47-4.635 3.329-12.214-.928-17.485l-2.118 2.02c3.734 4.622 3.2 10.876-.22 14.154-1.802 1.731-4.262 2.485-6.721 2.13-2.209-.314-4.424-1.52-6.188-3.703l-2.106 2.012c2.26 2.806 5.274 4.432 8.306 4.872 2.647.38 5.313-.158 7.495-1.62l4.09 5.061 2.472-2.373-4.082-5.068z" fill="#fff"/><path d="M29.817 142.28c3.42 0 5.44-2.06 5.44-4.48 0-2.14-1.18-3.28-2.98-4.02l-1.94-.82c-1.26-.5-2.32-.88-2.32-1.94 0-.98.84-1.56 2.14-1.56 1.22 0 2.2.44 3.14 1.22l1.5-1.86c-1.2-1.22-2.92-1.9-4.64-1.9-3 0-5.12 1.86-5.12 4.28 0 2.16 1.5 3.36 3 3.98l1.98.84c1.32.56 2.22.9 2.22 2 0 1.04-.82 1.7-2.36 1.7-1.3 0-2.7-.66-3.76-1.64l-1.7 2.04a7.887 7.887 0 005.4 2.16zm8.02 4.02h2.92v-3.4l-.08-1.84c.86.78 1.8 1.22 2.78 1.22 2.46 0 4.76-2.22 4.76-6.06 0-3.44-1.64-5.7-4.4-5.7-1.2 0-2.36.64-3.3 1.44h-.08l-.2-1.16h-2.4v15.5zm4.96-6.44c-.6 0-1.32-.22-2.04-.84v-4.92c.78-.78 1.46-1.16 2.22-1.16 1.54 0 2.22 1.18 2.22 3.32 0 2.44-1.04 3.6-2.4 3.6zm12.972 2.42c1.4 0 2.82-.48 3.92-1.24l-1-1.8c-.8.5-1.6.78-2.52.78-1.66 0-2.86-.96-3.1-2.8h6.9c.08-.26.14-.8.14-1.34 0-3.1-1.6-5.36-4.68-5.36-2.68 0-5.22 2.26-5.22 5.9 0 3.68 2.44 5.86 5.56 5.86zm-2.74-7c.22-1.64 1.26-2.48 2.44-2.48 1.44 0 2.12.96 2.12 2.48h-4.56zm12.188 7c1.28 0 2.4-.64 3.38-1.48h.06l.22 1.2h2.4v-6.54c0-3.24-1.46-4.94-4.3-4.94-1.76 0-3.36.66-4.68 1.48l1.06 1.94c1.04-.6 2.04-1.06 3.08-1.06 1.38 0 1.86.84 1.9 1.94-4.5.48-6.44 1.74-6.44 4.14 0 1.9 1.32 3.32 3.32 3.32zm.96-2.3c-.86 0-1.48-.38-1.48-1.26 0-1 .92-1.74 3.64-2.1v2.26c-.7.7-1.32 1.1-2.16 1.1zm8.296 2.02h2.86v-2.8l1.62-1.84 2.72 4.64h3.18l-4.24-6.62 3.88-4.58h-3.2l-3.88 4.84h-.08v-9.6h-2.86V142zm12.31 0h2.92v-11.2h-2.92V142zm1.48-13c1 0 1.74-.68 1.74-1.6 0-.96-.74-1.6-1.74-1.6-1.02 0-1.76.64-1.76 1.6 0 .92.74 1.6 1.76 1.6zm4.794 13h2.92v-7.7c.84-.82 1.42-1.26 2.34-1.26 1.1 0 1.58.62 1.58 2.34V142h2.94v-6.98c0-2.82-1.04-4.5-3.46-4.5-1.52 0-2.66.8-3.64 1.76h-.08l-.2-1.48h-2.4V142zm16.952 4.86c3.74 0 6.08-1.72 6.08-3.98 0-1.96-1.46-2.8-4.16-2.8h-1.9c-1.32 0-1.76-.32-1.76-.92 0-.44.16-.7.48-.96.48.16 1 .26 1.44.26 2.4 0 4.32-1.28 4.32-3.8 0-.7-.22-1.32-.52-1.7h1.92v-2.16h-4.04c-.46-.16-1.06-.28-1.68-.28-2.38 0-4.52 1.42-4.52 4.06 0 1.3.72 2.36 1.48 2.92v.08c-.66.48-1.24 1.26-1.24 2.1 0 .92.44 1.5 1.02 1.88v.1c-1.02.58-1.6 1.38-1.6 2.32 0 1.98 2.04 2.88 4.68 2.88zm.18-10.22c-.98 0-1.76-.74-1.76-2.06s.76-2.06 1.76-2.06 1.74.74 1.74 2.06-.76 2.06-1.74 2.06zm.26 8.36c-1.64 0-2.68-.54-2.68-1.48 0-.46.24-.9.74-1.3.4.1.88.16 1.56.16h1.36c1.2 0 1.86.2 1.86 1 0 .88-1.16 1.62-2.84 1.62z" fill="#36373B"/></svg>