<svg width="140" height="148" fill="none" xmlns="http://www.w3.org/2000/svg"><path d="M134.78 80.493l-24.7 21.327-87.352-12.09C42.754 72.443 90.48 62.373 134.78 65.12v15.373z" fill="#411968"/><path d="M110.132 3.518a.653.653 0 00-.554-.649 82.57 82.57 0 00-2.949-.36l-.631-.066a81.544 81.544 0 00-2.846-.236l-.477-.026a68.214 68.214 0 00-2.588-.112l-.477-.013a78.232 78.232 0 00-2.788-.013l-.605.013c-1.043.02-1.957.053-2.846.105h-.02c-11.37.65-22.091 3.711-31.872 9.107L47.757 18.84a.585.585 0 00-.084.052c-.869.479-1.719.97-2.562 1.489a64.32 64.32 0 00-1.797 1.127l-.11.072c-.572.374-1.139.754-1.7 1.141l-.147.105c-.547.38-1.095.767-1.636 1.167l-.16.118c-.535.393-1.063.793-1.591 1.206l-.161.118a93.26 93.26 0 00-1.558 1.253l-.148.124a74 74 0 00-1.533 1.311l-.129.112a60.98 60.98 0 00-1.526 1.383l-.096.092a64.82 64.82 0 00-1.526 1.468l-.052.053C14.918 47.385 5.955 70.443 6.001 96.162c0 .328.237.603.553.65l89.303 12.731a.632.632 0 00.4-.072l13.72-7.572a.654.654 0 00.335-.577l-.18-97.804z" fill="#411968"/><path d="M48.066 19.41l13.722-7.572c13.786-7.612 30.147-10.824 47.707-8.32l-13.722 7.573c-17.56-2.505-40.682 4.438-47.707 8.32z" fill="#DFBBFC"/><path d="M95.768 11.09l13.721-7.572.18 97.804-13.721 7.572-.18-97.803z" fill="#A475DB"/><path d="M79.682 10.383L93.403 2.81a81.062 81.062 0 0116.085.715l-13.722 7.572a81.064 81.064 0 00-16.084-.714z" fill="#D6AAF9"/><path d="M95.767 11.09l.18 97.804L6.645 96.162c-.097-54.022 39.8-92.106 89.122-85.071z" fill="#D094FF"/><path d="M30.16 33.257C46.348 17.319 69 9.209 94.1 12.789l1.674-1.698C69.792 7.387 46.438 16.198 30.16 33.257z" fill="#E8CCFF"/><path d="M94.094 12.789l.18 95.017 1.674 1.088-.18-97.803-1.674 1.698z" fill="#BA85ED"/><path d="M60.843 43.13c0-1.049-.792-2.026-1.765-2.176l-5.814-.833c-.953-.138-1.745.61-1.739 1.665l.007 5.003 9.324 1.337-.013-4.996zm.027 7.92l-9.33-1.337.057 30.177 4.675 5.796 4.649-4.458-.052-30.178z" fill="#fff"/><path d="M40.63 140h3.259l1.458-6.588c.216-1.044.396-2.07.576-3.078h.072c.162 1.008.36 2.034.576 3.078L48.065 140h3.312l2.466-13.32h-2.538l-1.044 6.498a820.03 820.03 0 00-.594 4.248h-.09c-.288-1.44-.558-2.88-.846-4.248l-1.548-6.498h-2.268l-1.548 6.498a253.341 253.341 0 00-.846 4.248h-.072c-.198-1.422-.414-2.844-.612-4.248l-1.062-6.498h-2.718L40.63 140zm14.906 0h2.628v-6.012c.576-1.458 1.53-1.98 2.322-1.98.414 0 .702.054 1.044.162l.468-2.286c-.306-.126-.63-.216-1.188-.216-1.044 0-2.124.72-2.862 2.034h-.072l-.18-1.782h-2.16V140zm7.75 0h2.627v-10.08h-2.628V140zm1.331-11.7c.9 0 1.566-.612 1.566-1.44 0-.864-.666-1.44-1.566-1.44-.918 0-1.584.576-1.584 1.44 0 .828.666 1.44 1.584 1.44zm7.735 11.952c.882 0 1.584-.198 2.124-.378l-.432-1.926c-.27.108-.666.216-.99.216-.9 0-1.368-.54-1.368-1.692v-4.464h2.484v-2.088h-2.484v-2.7h-2.214l-.306 2.7-1.548.126v1.962h1.422v4.464c0 2.268.918 3.78 3.312 3.78zm3.779-.252h2.628v-10.08H76.13V140zm1.332-11.7c.9 0 1.566-.612 1.566-1.44 0-.864-.666-1.44-1.566-1.44-.918 0-1.584.576-1.584 1.44 0 .828.666 1.44 1.584 1.44zm4.045 11.7h2.628v-6.93c.756-.738 1.278-1.134 2.106-1.134.99 0 1.422.558 1.422 2.106V140h2.646v-6.282c0-2.538-.936-4.05-3.114-4.05-1.368 0-2.394.72-3.276 1.584h-.072l-.18-1.332h-2.16V140zm14.987 4.374c3.366 0 5.472-1.548 5.472-3.582 0-1.764-1.314-2.52-3.744-2.52h-1.71c-1.188 0-1.584-.288-1.584-.828 0-.396.144-.63.432-.864.432.144.9.234 1.296.234 2.16 0 3.888-1.152 3.888-3.42 0-.63-.198-1.188-.468-1.53h1.728v-1.944h-3.636a4.742 4.742 0 00-1.512-.252c-2.142 0-4.068 1.278-4.068 3.654 0 1.17.648 2.124 1.332 2.628v.072c-.594.432-1.116 1.134-1.116 1.89 0 .828.396 1.35.918 1.692v.09c-.918.522-1.44 1.242-1.44 2.088 0 1.782 1.836 2.592 4.212 2.592zm.162-9.198c-.882 0-1.584-.666-1.584-1.854 0-1.188.684-1.854 1.584-1.854s1.566.666 1.566 1.854c0 1.188-.684 1.854-1.566 1.854zm.234 7.524c-1.476 0-2.412-.486-2.412-1.332 0-.414.216-.81.666-1.17.36.09.792.144 1.404.144h1.224c1.08 0 1.674.18 1.674.9 0 .792-1.044 1.458-2.556 1.458z" fill="#36373B"/></svg>